<?xml version="1.0" encoding="UTF-8" standalone="no"?>
<!-- Created with Inkscape (http://www.inkscape.org/) -->

<svg
   width="237.57605mm"
   height="237.81755mm"
   viewBox="0 0 237.57605 237.81755"
   version="1.1"
   id="svg5"
   xml:space="preserve"
   xmlns="http://www.w3.org/2000/svg"
   xmlns:svg="http://www.w3.org/2000/svg"><defs
     id="defs2" /><g
     id="layer1"
     transform="translate(37.920308,-28.19645)"><path
       style="fill:#0054e9;fill-opacity:1;stroke-width:0.264583"
       d="m 71.607289,265.95459 c -0.727604,-0.0579 -3.287448,-0.34828 -5.688541,-0.64525 -32.104186,-3.97062 -61.4044728,-21.12118 -80.791918,-47.29054 -8.883594,-11.99117 -15.623732,-26.02813 -19.460303,-40.52789 -1.113107,-4.20682 -2.255206,-10.14352 -2.977676,-15.47812 -0.548521,-4.05019 -0.609158,-5.52507 -0.609158,-14.81667 0,-11.35872 0.282042,-14.64871 1.996013,-23.28333 9.354136,-47.124131 46.38454,-84.154535 93.508666,-93.50867 14.829021,-2.943559 31.737648,-2.943559 46.566668,0 47.12413,9.354135 84.15453,46.384539 93.50867,93.50867 1.71397,8.63462 1.99601,11.92461 1.99601,23.28333 0,11.33956 -0.27263,14.51337 -2.00003,23.28333 -3.3549,17.03273 -10.64447,33.49777 -21.04711,47.53935 -17.50933,23.63426 -43.40454,40.14075 -71.92837,45.8496 -8.579401,1.71711 -12.175792,2.05741 -22.489587,2.12807 -5.093229,0.0349 -9.855729,0.0161 -10.583334,-0.0419 z M 90.65729,250.50133 c 10.83406,-0.93396 19.6556,-3.28548 27.91354,-7.44078 9.7244,-4.8932 16.36783,-11.58465 20.10288,-20.24816 4.55755,-10.57134 4.14481,-23.23444 -1.23143,-37.78085 -2.78465,-7.53439 -5.83987,-12.31507 -16.24899,-25.42567 -8.3009,-10.45524 -12.15301,-15.77145 -15.28596,-21.09581 -10.931736,-18.57818 -9.774401,-33.48949 3.79537,-48.900213 8.20449,-9.317557 22.93796,-17.246688 42.99938,-23.141031 2.69214,-0.79099 5.01386,-1.493356 5.15938,-1.560814 0.66709,-0.309242 -11.22981,0.540756 -18.91771,1.351614 -38.60808,4.072069 -73.599558,13.730811 -98.137459,27.089005 -27.66181,15.058819 -43.9560109,34.019429 -49.9129911,58.080829 -1.7556959,7.0916 -2.0780159,10.09077 -2.0899569,19.44688 -0.01119,8.77292 0.118552,10.35247 1.3475123,16.40417 4.2016178,20.68978 18.3808189,38.63532 39.6522667,50.18488 13.680215,7.42782 28.766609,11.73377 46.037501,13.13999 2.585535,0.21052 11.928816,0.14491 14.816667,-0.10404 z M 63.405206,238.84856 c -12.120378,-1.47294 -26.670046,-8.67995 -33.212853,-16.45159 -5.777569,-6.86267 -4.539679,-12.57752 3.114135,-14.3767 2.505335,-0.58894 9.487104,-0.36712 13.165384,0.41827 4.116052,0.87886 10.195039,3.0178 14.274938,5.02276 16.34756,8.03357 23.439795,19.80581 14.564646,24.17552 -0.727604,0.35824 -1.97776,0.79075 -2.778125,0.96113 -2.027468,0.43162 -6.60463,0.55728 -9.128125,0.25061 z"
       id="path6333" /></g></svg>
